# xmcd
#
# Track frame offsets:
#	150
#	11412
#	26275
#	39762
#	50325
#	62762
#	70752
#	79237
#	89750
#	100300
#	106005
#	109735
#	120737
#	124980
#	134200
#	143212
#	153187
#	162100
#	171550
#	182700
#
# Disc length: 2558 seconds
#
# Revision: 0
# Processed by: cddbd v1.4PL0 Copyright (c) Steve Scherf et al.
# Submitted via: EasyCDDAExtractor 4.5.2.1
#
DISCID=0f09fc14
DTITLE=Loretta Lynn - 22 Great Tracks
DYEAR=1900
DGENRE=Country
TTITLE0=Hey Loretta
TTITLE1=Coal Miner's Daughter
TTITLE2=Let Your Love Flow
TTITLE3=You're Looking At Country
TTITLE4=Me and Bobby McGee Medley:
TTITLE5=One's On The Way
TTITLE6=The Pill
TTITLE7=I Want Yer Outta My Head
TTITLE8=Somebody Somewhere
TTITLE9=I Fall To Pieces
TTITLE10=Walkin' After Midnight
TTITLE11=Crazy
TTITLE12=Back in Baby's Arms
TTITLE13=She's Got You
TTITLE14=They Don't Make 'Em Like My Daddy
TTITLE15=You Ain't Woman Enough
TTITLE16=We've Come A Long Way Baby
TTITLE17=Your Squaw I On The Warpath
TTITLE18=Spring Fever
TTITLE19=Fist City
EXTD=
EXTT0=
EXTT1=
EXTT2=
EXTT3=
EXTT4=
EXTT5=
EXTT6=
EXTT7=
EXTT8=
EXTT9=
EXTT10=
EXTT11=
EXTT12=
EXTT13=
EXTT14=
EXTT15=
EXTT16=
EXTT17=
EXTT18=
EXTT19=
PLAYORDER=
